<svg xmlns="http://www.w3.org/2000/svg" width="350" height="350" viewBox="0 0 350 350">
  <defs>
    <style>
      .chem-symbol { fill: none; stroke: rgba(46, 204, 113, 0.12); stroke-width: 1.5; }
      .bio-symbol { fill: rgba(52, 152, 219, 0.08); stroke: rgba(52, 152, 219, 0.15); stroke-width: 1; }
      .physics-symbol { fill: none; stroke: rgba(155, 89, 182, 0.12); stroke-width: 2; }
    </style>
  </defs>
  
  <!-- Benzeno -->
  <g class="chem-symbol" transform="translate(60, 60)">
    <polygon points="20,5 35,15 35,35 20,45 5,35 5,15" />
    <circle cx="20" cy="25" r="12" fill="none" stroke-dasharray="3,3"/>
  </g>
  
  <!-- Tubo de ensayo -->
  <g class="bio-symbol" transform="translate(200, 50)">
    <rect x="15" y="10" width="8" height="40" rx="4"/>
    <rect x="12" y="8" width="14" height="4" rx="2"/>
    <rect x="15" y="15" width="8" height="15" fill="rgba(26, 188, 156, 0.2)"/>
  </g>
  
  <!-- Onda/Frecuencia -->
  <g class="physics-symbol" transform="translate(280, 120)">
    <path d="M5,20 Q15,5 25,20 Q35,35 45,20 Q55,5 65,20"/>
  </g>
  
  <!-- Mitocondria -->
  <g class="bio-symbol" transform="translate(40, 150)">
    <ellipse cx="25" cy="15" rx="20" ry="12"/>
    <path d="M10,15 Q15,10 20,15 Q25,20 30,15 Q35,10 40,15" fill="none" stroke="rgba(52, 152, 219, 0.2)"/>
    <path d="M10,15 Q15,20 20,15 Q25,10 30,15 Q35,20 40,15" fill="none" stroke="rgba(52, 152, 219, 0.2)"/>
  </g>
  
  <!-- Estructura cristalina -->
  <g class="chem-symbol" transform="translate(150, 180)">
    <circle cx="10" cy="10" r="3" fill="rgba(46, 204, 113, 0.3)"/>
    <circle cx="30" cy="10" r="3" fill="rgba(46, 204, 113, 0.3)"/>
    <circle cx="10" cy="30" r="3" fill="rgba(46, 204, 113, 0.3)"/>
    <circle cx="30" cy="30" r="3" fill="rgba(46, 204, 113, 0.3)"/>
    <line x1="10" y1="10" x2="30" y2="10"/>
    <line x1="10" y1="30" x2="30" y2="30"/>
    <line x1="10" y1="10" x2="10" y2="30"/>
    <line x1="30" y1="10" x2="30" y2="30"/>
    <line x1="10" y1="10" x2="30" y2="30"/>
    <line x1="30" y1="10" x2="10" y2="30"/>
  </g>
  
  <!-- Clorofila/Hoja molecular -->
  <g class="bio-symbol" transform="translate(250, 220)">
    <path d="M20,10 Q10,15 15,25 Q20,35 25,25 Q30,15 20,10" />
    <circle cx="20" cy="22" r="4" fill="rgba(46, 204, 113, 0.3)"/>
    <line x1="20" y1="35" x2="20" y2="45" stroke="rgba(46, 204, 113, 0.4)"/>
  </g>
  
  <!-- Átomo complejo -->
  <g class="physics-symbol" transform="translate(80, 250)">
    <circle cx="20" cy="20" r="15"/>
    <ellipse cx="20" cy="20" rx="25" ry="8" transform="rotate(30 20 20)"/>
    <ellipse cx="20" cy="20" rx="25" ry="8" transform="rotate(-30 20 20)"/>
    <ellipse cx="20" cy="20" rx="25" ry="8" transform="rotate(90 20 20)"/>
    <circle cx="20" cy="20" r="2" fill="rgba(155, 89, 182, 0.4)"/>
  </g>
  
  <!-- Cadena de carbono -->
  <g class="chem-symbol" transform="translate(180, 280)">
    <circle cx="10" cy="15" r="4" fill="rgba(46, 204, 113, 0.2)"/>
    <circle cx="25" cy="15" r="4" fill="rgba(46, 204, 113, 0.2)"/>
    <circle cx="40" cy="15" r="4" fill="rgba(46, 204, 113, 0.2)"/>
    <circle cx="55" cy="15" r="4" fill="rgba(46, 204, 113, 0.2)"/>
    <line x1="14" y1="15" x2="21" y2="15"/>
    <line x1="29" y1="15" x2="36" y2="15"/>
    <line x1="44" y1="15" x2="51" y2="15"/>
    <line x1="10" y1="11" x2="10" y2="5" stroke="rgba(231, 76, 60, 0.3)"/>
    <line x1="25" y1="11" x2="25" y2="5" stroke="rgba(231, 76, 60, 0.3)"/>
    <line x1="40" y1="11" x2="40" y2="5" stroke="rgba(231, 76, 60, 0.3)"/>
    <line x1="55" y1="11" x2="55" y2="5" stroke="rgba(231, 76, 60, 0.3)"/>
  </g>
  
  <!-- Espiral de ADN pequeña -->
  <g class="bio-symbol" transform="translate(300, 280)">
    <path d="M5,5 Q10,15 5,25 Q0,35 5,45" fill="none" stroke="rgba(155, 89, 182, 0.15)" stroke-width="2"/>
    <path d="M15,5 Q10,15 15,25 Q20,35 15,45" fill="none" stroke="rgba(155, 89, 182, 0.15)" stroke-width="2"/>
    <line x1="5" y1="12" x2="15" y2="12" stroke="rgba(155, 89, 182, 0.2)"/>
    <line x1="5" y1="25" x2="15" y2="25" stroke="rgba(155, 89, 182, 0.2)"/>
    <line x1="5" y1="38" x2="15" y2="38" stroke="rgba(155, 89, 182, 0.2)"/>
  </g>
</svg>